# xmcd
#
# Track frame offsets:
#	150
#	15745
#	30864
#	48050
#	66027
#	81180
#	101519
#	119268
#	132996
#	148998
#	166611
#	182864
#	197228
#
# Disc length: 2915 seconds
#
# Revision: 1
# Processed by: cddbd v1.5.2PL0 Copyright (c) Steve Scherf et al.
# Submitted via: audiograbber 1.83.01
#
DISCID=a80b610d
DTITLE=O'Shea - 61-615
DYEAR=2017
DGENRE=Country
TTITLE0=Start over
TTITLE1=Dream believe
TTITLE2=The trouble with you
TTITLE3=Just got real (feat. lloys spiegel)
TTITLE4=Karaoke and corona
TTITLE5=I will not give up
TTITLE6=Nowhere fast
TTITLE7=Once and for always
TTITLE8=Winning
TTITLE9=Do it for me
TTITLE10=These days
TTITLE11=Playing to win (feat. the wolfe brothers and travis collins)
TTITLE12=Recover
EXTD=
EXTT0=
EXTT1=
EXTT2=
EXTT3=
EXTT4=
EXTT5=
EXTT6=
EXTT7=
EXTT8=
EXTT9=
EXTT10=
EXTT11=
EXTT12=
PLAYORDER=
